<?xml version="1.0" encoding="UTF-8"?>
<svg id="Calque_2" data-name="Calque 2" xmlns="http://www.w3.org/2000/svg" viewBox="0 0 235.43 235.42">
  <defs>
    <style>
      .cls-1 {
        fill: #99c329;
      }
    </style>
  </defs>
  <g id="Calque_1-2" data-name="Calque 1">
    <polygon class="cls-1" points="116.45 72.87 113.83 72.87 113.83 72.86 116.45 72.87"/>
    <path class="cls-1" d="M235.43.26l-.06,121.32c-10.16-.14-20.43-.17-30.54-.13l-.08-90.31-90.78-.3-10.53-.03L73.41.08l40.42-.02v-.06l21.42.05,100.18.21Z"/>
    <polygon class="cls-1" points="162.34 73.07 162.56 73.07 162.55 119.08 162.55 121.59 162.52 235.42 131.85 205.64 131.63 121.45 131.59 104.88 130.54 103.83 113.97 103.79 29.78 103.57 0 72.9 113.83 72.87 116.45 72.87 162.34 73.07"/>
    <polygon class="cls-1" points="162.34 72.86 162.34 73.07 116.45 72.87 162.34 72.86"/>
    <polygon class="cls-1" points="162.56 121.59 162.55 121.59 162.55 119.08 162.56 121.59"/>
  </g>
</svg>